<svg width="90" height="90" viewBox="0 0 90 90" fill="none" xmlns="http://www.w3.org/2000/svg">
<path d="M42.9211 18.0066C42.9211 14.752 46.4941 12.7617 49.2614 14.4748L68.7569 26.5428C69.4136 26.9493 70.1709 27.1648 70.9433 27.1648H77.5365C79.8305 27.1649 81.6903 29.0246 81.6903 31.3186V57.6263C81.6903 59.9204 79.8305 61.7801 77.5365 61.7802H70.9433C70.171 61.7802 69.4136 61.9957 68.7569 62.4022L49.2614 74.4702C46.4941 76.1833 42.9211 74.193 42.9211 70.9384V18.0066Z" fill="#618FBF"/>
<path d="M31.7603 32.4545C32.5714 31.6434 33.8862 31.6434 34.6972 32.4545C35.5078 33.2656 35.5082 34.5804 34.6972 35.3914L25.7811 44.3075L34.6972 53.2237C35.5078 54.0348 35.5082 55.3497 34.6972 56.1606C33.8863 56.9715 32.5715 56.9712 31.7603 56.1606L22.8442 47.2444L13.928 56.1606C13.1171 56.9715 11.8022 56.9712 10.9911 56.1606C10.18 55.3495 10.18 54.0348 10.9911 53.2237L19.9073 44.3075L10.9911 35.3914C10.18 34.5803 10.18 33.2656 10.9911 32.4545C11.8022 31.6434 13.1169 31.6434 13.928 32.4545L22.8442 41.3706L31.7603 32.4545Z" fill="#618FBF"/>
</svg>
