<svg width="90" height="90" viewBox="0 0 90 90" fill="none" xmlns="http://www.w3.org/2000/svg">
<path d="M42.9213 18.0066C42.9213 14.752 46.4943 12.7617 49.2616 14.4748L68.7571 26.5428C69.4138 26.9494 70.1711 27.1648 70.9435 27.1648H77.5367C79.8307 27.1648 81.6905 29.0246 81.6905 31.3186V57.6263C81.6905 59.9204 79.8308 61.7802 77.5367 61.7802H70.9435C70.1711 61.7802 69.4138 61.9956 68.7571 62.4022L49.2616 74.4702C46.4943 76.1833 42.9213 74.193 42.9213 70.9384V18.0066Z" fill="#618FBF"/>
<path d="M17.4019 17.5726C18.0206 16.6067 19.3053 16.3251 20.2712 16.9438C21.2362 17.5626 21.5179 18.8462 20.8999 19.8117C17.0293 25.8549 14.5367 34.5479 14.5367 44.3075C14.5368 54.0671 17.0291 62.7603 20.8999 68.8033C21.5175 69.7689 21.2363 71.0527 20.2712 71.6713C19.3055 72.2895 18.0206 72.0078 17.4019 71.0425C13.0309 64.2183 10.383 54.7161 10.3828 44.3075C10.3828 33.8989 13.031 24.3969 17.4019 17.5726Z" fill="#618FBF"/>
<path d="M25.4905 21.817C26.0588 20.8207 27.327 20.4741 28.3233 21.0422C29.3193 21.6106 29.6675 22.8788 29.0995 23.875C26.1178 29.1026 24.229 36.2938 24.229 44.3075C24.2291 52.3213 26.1177 59.5126 29.0995 64.7401C29.6671 65.7363 29.3194 67.0047 28.3233 67.5728C27.3273 68.1405 26.0589 67.7937 25.4905 66.7981C22.0985 60.8513 20.0753 52.9286 20.0751 44.3075C20.0751 35.6864 22.0987 27.7639 25.4905 21.817Z" fill="#618FBF"/>
<path d="M33.5832 27.4217C34.1152 26.4055 35.3714 26.0122 36.3876 26.5442C37.4033 27.0763 37.7954 28.3312 37.2638 29.3472C35.2104 33.2699 33.9213 38.5021 33.9213 44.3075C33.9214 50.113 35.2103 55.3453 37.2638 59.2679C37.795 60.2838 37.4033 61.539 36.3876 62.0709C35.3717 62.6025 34.1154 62.2089 33.5832 61.1933C31.1786 56.5998 29.7676 50.6915 29.7674 44.3075C29.7674 37.9235 31.1787 32.0154 33.5832 27.4217Z" fill="#618FBF"/>
</svg>
